<svg style="height: 512px; width: 512px;" xmlns="http://www.w3.org/2000/svg" viewBox="0 0 512 512"><g class="" style="" transform="translate(0,0)"><g><path d="M169 57L169 487L247 487L247 57L169 57Z" class="" fill="#0275d8" fill-opacity="1"></path><path d="M25 105L25 295L71 295L71 105L25 105Z" class="" fill="#d9534f" fill-opacity="1"></path><path d="M183 128L201 128L201 448L183 448L183 128Z" class="" fill="#f7f7f7" fill-opacity="1"></path><path d="M311.725 135.69L266.449 143.814L328.274 488.311L373.55 480.187L311.725 135.69Z" class="" fill="#f0ad4e" fill-opacity="1"></path><path d="M89 153L89 423L151 423L151 153L89 153Z" class="" fill="#5cb85c" fill-opacity="1"></path><path d="M370.502 181.68L342.908 193.453L348.402 206.33L375.996 194.557L370.502 181.68Z" class="" fill="#5bc0de" fill-opacity="1"></path><path d="M383.062 211.113L355.465 222.885L360.959 235.762L388.552 223.99L383.06 211.113Z" class="" fill="#5bc0de" fill-opacity="1"></path><path d="M395.617 240.547L368.023 252.317L467.697 485.945L495.291 474.172L395.618 240.547Z" class="selected" fill="#5bc0de" fill-opacity="1"></path><path d="M25 313L25 343L71 343L71 313L25 313Z" class="" fill="#d9534f" fill-opacity="1"></path><path d="M215 320L233 320L233 448L215 448L215 320Z" class="" fill="#f7f7f7" fill-opacity="1"></path><path d="M25 361L25 487L71 487L71 361L25 361Z" class="" fill="#d9534f" fill-opacity="1"></path><path d="M89 441L89 487L151 487L151 441L89 441Z" class="" fill="#5cb85c" fill-opacity="1"></path></g></g></svg>